<?xml version="1.0" standalone="no"?>
<!DOCTYPE svg PUBLIC "-//W3C//DTD SVG 20010904//EN"
 "http://www.w3.org/TR/2001/REC-SVG-20010904/DTD/svg10.dtd">
<svg version="1.0" xmlns="http://www.w3.org/2000/svg"
 width="200.000000pt" height="200.000000pt" viewBox="0 0 200.000000 200.000000"
 preserveAspectRatio="xMidYMid meet">
<metadata>
Created by potrace 1.11, written by Peter Selinger 2001-2013
</metadata>
<g transform="translate(0.000000,200.000000) scale(0.100000,-0.100000)"
fill="#000000" stroke="none">
<path d="M916 1895 c-14 -8 -24 -10 -22 -6 3 4 -8 8 -23 7 -16 -1 -29 -5 -28
-10 1 -5 -8 -9 -20 -11 -13 -1 -20 3 -17 9 3 6 -1 3 -9 -6 -8 -10 -17 -15 -20
-11 -4 3 -13 0 -21 -6 -17 -14 -40 -5 -30 11 4 7 2 8 -5 4 -6 -4 -9 -10 -7
-14 2 -4 -2 -13 -10 -20 -8 -7 -14 -9 -14 -3 0 14 -25 7 -44 -12 -20 -20 -30
-22 -21 -4 4 6 0 4 -8 -5 -8 -10 -17 -15 -20 -11 -4 3 -7 1 -7 -6 0 -9 -9 -12
-25 -9 -13 3 -22 1 -19 -3 3 -5 0 -17 -5 -26 -6 -10 -11 -13 -11 -7 0 6 -7 11
-15 11 -8 0 -12 -4 -9 -9 10 -16 -7 -30 -21 -18 -11 9 -13 8 -10 -9 2 -14 -1
-18 -11 -14 -8 3 -14 0 -14 -6 0 -6 -7 -11 -15 -11 -8 0 -14 -3 -14 -7 3 -20
-2 -26 -11 -13 -7 11 -10 11 -10 2 0 -8 -5 -10 -12 -6 -9 5 -9 2 1 -9 12 -15
11 -17 -3 -17 -9 0 -16 -5 -16 -11 0 -5 -5 -7 -12 -3 -7 4 -8 3 -4 -5 4 -7 -2
-15 -16 -20 -13 -6 -18 -10 -13 -11 6 0 -1 -8 -15 -16 -14 -8 -17 -13 -8 -10
15 4 16 2 6 -13 -7 -11 -18 -17 -27 -13 -10 4 -13 1 -8 -11 3 -8 -1 -21 -8
-27 -8 -7 -12 -16 -9 -21 3 -5 -2 -6 -10 -3 -10 4 -16 1 -16 -8 0 -24 -25 -68
-36 -64 -6 2 -11 -2 -11 -10 0 -7 5 -10 10 -7 5 3 8 0 5 -8 -3 -8 -10 -15 -16
-15 -23 -3 -24 -4 -12 -19 8 -9 9 -15 2 -15 -6 0 -9 -9 -7 -20 2 -11 -1 -23
-7 -26 -6 -4 -8 -2 -4 4 3 6 2 13 -3 17 -6 3 -8 -6 -5 -21 3 -14 0 -32 -6 -40
-7 -7 -9 -18 -5 -24 3 -5 1 -10 -6 -10 -8 0 -8 -4 1 -16 11 -12 11 -15 1 -12
-7 2 -15 -7 -17 -20 -3 -17 0 -21 8 -16 9 5 9 3 -1 -9 -7 -9 -13 -36 -13 -59
1 -27 -2 -37 -8 -29 -5 10 -8 6 -7 -12 1 -15 6 -27 11 -27 5 0 3 -7 -4 -15
-10 -12 -10 -15 1 -15 11 0 11 -2 -1 -10 -10 -6 -11 -10 -2 -10 6 0 12 -5 12
-11 0 -5 -6 -7 -12 -3 -9 5 -8 2 1 -9 8 -10 11 -20 8 -24 -4 -3 -2 -12 4 -20
9 -10 7 -13 -7 -14 -18 0 -18 -1 1 -9 11 -5 14 -9 7 -9 -9 -1 -9 -7 3 -25 10
-14 12 -27 6 -30 -10 -7 -9 -31 2 -42 3 -4 4 3 2 15 -2 12 0 19 5 16 5 -3 7
-17 4 -30 -3 -16 0 -25 8 -25 9 0 8 -3 -2 -10 -11 -7 -11 -10 -2 -10 7 0 10
-4 7 -10 -3 -5 1 -10 10 -10 9 0 13 -5 10 -10 -4 -6 -12 -8 -18 -4 -7 3 -1 -4
13 -15 21 -18 22 -20 5 -15 -18 5 -18 4 -4 -8 9 -7 14 -19 11 -27 -3 -8 0 -11
7 -7 6 4 11 0 11 -9 0 -9 5 -13 10 -10 6 3 10 1 10 -4 0 -6 -4 -11 -10 -11 -5
0 -10 -4 -10 -10 0 -5 5 -9 12 -7 7 1 13 -5 13 -13 0 -8 6 -14 11 -13 6 1 11
-5 12 -13 1 -8 3 -21 4 -29 1 -12 4 -12 17 -3 9 7 13 8 8 3 -4 -4 1 -18 10
-29 13 -15 14 -18 3 -11 -9 6 -4 -1 10 -15 14 -14 20 -21 13 -16 -10 6 -12 5
-7 -7 3 -9 15 -17 27 -19 12 -2 21 -9 20 -16 -2 -6 5 -12 15 -12 13 0 14 -2 4
-9 -11 -6 -10 -10 5 -16 10 -5 24 -7 32 -6 7 1 10 -2 7 -8 -4 -5 -2 -12 3 -16
6 -3 7 -13 4 -23 -6 -15 -5 -15 10 -3 15 12 21 9 18 -11 0 -4 6 -5 15 -1 13 5
15 1 9 -18 -5 -19 -4 -21 5 -9 9 13 12 13 21 -2 13 -22 55 -47 44 -26 -3 7 0
5 8 -4 8 -10 22 -18 31 -18 9 0 16 -5 16 -11 0 -5 4 -7 10 -4 5 3 10 -1 10 -9
0 -9 5 -16 11 -16 5 0 7 5 4 10 -3 6 1 10 10 10 9 0 13 -4 10 -10 -3 -5 4 -10
15 -10 17 0 21 -4 16 -17 -6 -14 -4 -14 14 2 16 14 21 16 18 5 -2 -10 5 -15
20 -14 13 0 22 -5 22 -15 0 -11 3 -11 16 5 8 10 13 14 10 8 -3 -7 2 -18 11
-25 13 -11 17 -12 21 -1 3 10 8 8 18 -5 13 -17 14 -17 7 2 -6 19 -6 19 14 2
20 -17 21 -17 28 0 6 16 8 16 26 -6 10 -13 19 -19 19 -14 0 5 24 8 53 6 28 -2
57 -4 62 -4 10 0 50 8 50 11 0 1 17 2 37 4 21 2 35 0 33 -4 -2 -4 2 -7 9 -7 8
0 12 7 8 15 -3 10 -1 13 6 8 6 -3 14 -2 17 4 5 8 11 7 21 -1 8 -7 14 -7 14 -1
0 5 7 13 16 16 9 4 13 2 8 -5 -4 -7 -1 -10 7 -7 8 3 13 10 12 15 -1 6 9 8 23
5 18 -3 32 2 47 18 13 15 22 19 25 12 2 -8 9 -6 20 6 10 10 13 13 9 6 -5 -7
-3 -15 4 -20 7 -4 10 -3 6 2 -7 13 15 39 33 39 8 0 14 5 13 12 -2 7 4 10 12 7
8 -4 15 -1 15 6 0 7 7 10 15 6 8 -3 14 0 12 7 -1 7 4 11 12 9 8 -2 11 3 8 11
-3 7 1 14 9 15 8 1 21 3 29 4 12 1 12 4 2 17 -8 10 -8 13 0 8 6 -4 19 -4 28
-1 13 5 14 9 4 15 -9 5 -5 10 14 14 15 4 24 12 20 18 -4 7 0 8 12 3 15 -5 16
-4 5 9 -10 12 -10 15 2 15 17 0 69 55 61 64 -4 3 0 6 7 6 7 0 10 3 7 7 -4 3 5
15 20 25 16 10 23 18 17 18 -5 0 -16 -6 -24 -13 -8 -6 -6 -2 4 10 10 13 24 20
30 16 6 -4 4 2 -4 12 -14 17 -13 18 3 12 10 -4 16 -3 13 1 -3 5 2 21 9 36 8
16 12 32 9 37 -3 5 0 8 8 7 7 -2 12 5 12 15 -1 10 5 17 15 17 13 0 13 2 2 9
-11 7 -11 9 0 14 11 4 11 6 1 6 -10 1 -10 5 2 17 9 8 14 20 10 25 -3 6 0 17 7
25 6 8 9 17 6 21 -4 3 1 12 11 20 9 8 12 12 6 9 -6 -3 -10 4 -9 17 2 12 7 21
12 20 5 -1 10 4 10 12 0 8 -5 12 -11 9 -6 -3 -3 1 6 8 15 13 15 15 0 27 -15
11 -15 11 2 6 15 -4 17 -3 7 9 -7 8 -8 17 -3 20 10 6 9 40 -3 75 -5 17 -3 20
12 15 17 -5 17 -5 0 6 -14 9 -16 15 -6 26 7 9 8 14 1 14 -14 0 -20 30 -11 57
6 15 3 27 -6 37 -16 16 -20 30 -7 22 5 -3 9 1 9 9 0 8 -4 12 -9 8 -6 -3 -9 3
-7 13 1 11 -4 33 -11 49 -7 17 -13 40 -13 52 0 12 -4 20 -9 17 -4 -3 -5 -10
-2 -16 4 -6 2 -8 -3 -5 -6 4 -8 18 -5 32 2 15 0 25 -7 25 -7 0 -10 4 -6 9 3 5
1 12 -5 16 -6 4 -8 10 -5 15 3 4 -3 14 -13 21 -16 13 -16 13 -2 -6 14 -19 14
-19 -3 -6 -12 10 -15 17 -7 25 5 5 10 15 10 20 0 6 -5 4 -10 -4 -9 -13 -10
-13 -11 0 -1 8 -3 20 -4 25 -2 6 -3 14 -4 19 0 5 -8 3 -17 -4 -8 -8 -14 -9
-13 -4 5 26 -2 45 -13 38 -10 -6 -10 -4 0 8 10 13 10 17 -3 22 -14 5 -14 8 2
31 10 13 22 25 27 25 5 0 3 -6 -3 -14 -9 -10 -8 -15 3 -19 7 -3 28 9 46 28 18
19 37 32 41 30 4 -3 16 6 27 20 11 13 21 22 24 20 2 -2 4 4 5 13 1 9 3 23 5
31 2 7 -4 16 -12 18 -13 4 -13 3 0 -6 8 -6 10 -11 4 -11 -20 0 -37 27 -23 36
8 5 9 3 4 -6 -5 -9 -4 -11 4 -6 6 4 9 12 6 17 -7 10 -33 8 -52 -4 -7 -5 -13
-5 -13 0 0 4 -4 2 -9 -5 -7 -11 -9 -10 -14 3 -5 10 -3 14 5 9 7 -4 8 -3 4 5
-10 15 -29 3 -22 -14 2 -7 -7 -23 -22 -36 -14 -13 -21 -17 -14 -8 10 14 10 18
-2 22 -19 8 -28 -6 -20 -30 6 -17 6 -17 -7 0 -14 17 -16 17 -38 -2 -13 -12
-28 -21 -33 -21 -4 0 -8 -4 -8 -10 0 -5 7 -10 16 -10 8 0 13 3 11 8 -3 4 5 15
18 24 19 15 23 15 21 2 -1 -8 -6 -14 -10 -14 -4 1 -13 -6 -20 -16 -11 -14 -18
-15 -44 -6 -16 6 -34 7 -38 4 -4 -4 -4 -1 0 6 6 11 -5 17 -26 13 -5 0 -8 9 -8
21 0 15 -3 19 -8 11 -6 -9 -13 -5 -27 13 -22 29 -62 55 -50 32 4 -8 2 -8 -7 2
-7 8 -22 22 -33 30 -20 15 -20 15 0 -10 l20 -25 -26 23 c-14 12 -29 19 -33 15
-4 -5 -7 -3 -6 2 5 21 -1 29 -9 16 -8 -12 -12 -12 -25 -2 -9 7 -13 18 -9 25 4
6 -2 4 -12 -4 -10 -8 -16 -10 -12 -4 4 7 0 15 -9 18 -10 4 -13 2 -9 -7 4 -6 0
-4 -8 5 -8 10 -17 15 -20 11 -4 -3 -17 2 -29 13 -12 10 -18 13 -14 7 5 -9 -1
-13 -19 -13 -15 0 -24 4 -20 10 3 6 -1 10 -9 10 -9 0 -16 -6 -16 -12 0 -9 -3
-9 -9 1 -6 9 -18 12 -32 8 -24 -6 -24 -6 -4 10 l20 16 -20 -8 c-11 -4 -28 -7
-38 -7 -11 1 -15 -4 -10 -11 3 -7 -3 -3 -15 7 -12 11 -22 15 -22 10 0 -6 -9
-10 -20 -11 -11 -1 -20 2 -20 8 0 5 -5 9 -11 9 -5 0 -7 -5 -3 -11 4 -8 1 -8
-13 -1 -14 8 -27 7 -47 -3z m95 -103 c0 -14 2 -13 9 3 5 11 9 14 9 6 1 -11 4
-11 18 0 11 10 14 10 9 2 -9 -16 6 -17 22 -1 9 9 12 9 12 -3 0 -16 40 -21 40
-4 0 5 7 1 15 -9 15 -20 15 -20 16 0 0 17 1 16 9 -3 5 -13 12 -23 15 -23 4 0
4 4 0 9 -3 5 10 9 29 8 29 -2 32 -4 23 -17 -6 -8 -7 -12 -3 -8 5 4 15 3 23 -3
10 -9 13 -8 13 0 0 7 5 9 10 6 6 -4 7 -12 3 -18 -4 -7 0 -6 10 2 12 9 17 10
17 2 0 -7 5 -9 12 -5 8 5 9 2 4 -11 -5 -15 -4 -16 9 -5 10 8 15 9 15 1 0 -6 9
-11 20 -11 11 0 20 -4 20 -10 0 -5 5 -10 11 -10 6 0 17 -7 26 -15 8 -8 18 -13
23 -10 5 3 17 -6 28 -20 11 -14 25 -25 32 -25 25 0 -36 -75 -90 -111 -18 -12
-21 -17 -10 -24 9 -6 11 -4 5 6 -5 8 -5 11 -1 7 5 -4 17 2 29 12 11 11 23 17
26 14 3 -4 0 -9 -7 -11 -6 -3 -10 -9 -6 -14 3 -5 0 -8 -8 -7 -7 2 -12 -3 -10
-10 1 -6 -1 -11 -6 -10 -11 4 -62 -38 -55 -45 3 -4 -6 -11 -21 -17 -15 -5 -25
-14 -22 -19 3 -5 -6 -16 -19 -25 -14 -9 -23 -21 -20 -26 3 -6 -1 -7 -10 -4
-11 5 -14 2 -9 -12 5 -16 4 -16 -5 -4 -8 11 -7 18 6 28 13 9 14 12 2 12 -20 0
-42 -37 -27 -46 7 -5 6 -11 -6 -20 -10 -7 -17 -16 -17 -21 1 -8 -3 -10 -41
-12 -18 -1 -20 -3 -8 -10 8 -6 19 -7 25 -3 5 3 4 -2 -4 -11 -9 -12 -17 -14
-26 -7 -8 7 -19 1 -38 -20 -24 -27 -25 -30 -9 -40 16 -9 16 -11 0 -23 -10 -8
-14 -18 -10 -22 4 -5 2 -5 -5 -2 -6 4 -14 1 -16 -5 -4 -9 -6 -10 -6 -1 -1 6 8
18 19 26 17 12 18 16 6 20 -9 4 -17 -1 -21 -13 -3 -10 -12 -21 -20 -24 -8 -3
-12 -12 -9 -21 3 -8 10 -12 15 -9 5 3 6 -2 2 -12 -6 -15 -7 -15 -15 0 -8 14
-15 10 -44 -28 -33 -43 -45 -74 -24 -61 6 4 8 10 5 15 -3 5 4 14 15 20 11 6
18 15 15 19 -2 5 2 14 9 20 11 10 14 9 12 -2 -1 -8 -7 -21 -14 -29 -6 -8 -9
-18 -5 -22 4 -4 0 -4 -10 0 -13 4 -16 2 -12 -9 4 -8 -1 -17 -9 -20 -10 -4 -13
-13 -10 -24 5 -15 4 -15 -4 -3 -6 8 -8 18 -6 22 3 4 0 8 -5 8 -6 0 -11 -2 -11
-4 0 -2 -3 -13 -6 -23 -5 -15 -4 -16 5 -3 9 12 10 10 8 -9 -2 -14 -9 -27 -15
-29 -7 -2 -10 -8 -6 -13 3 -5 -2 -12 -10 -15 -9 -3 -14 -10 -11 -14 3 -4 -5
-19 -16 -34 -11 -14 -17 -26 -14 -26 4 0 2 -7 -5 -15 -12 -14 -15 -14 -30 0
-12 11 -20 12 -23 5 -3 -6 -4 -5 -3 2 2 7 -3 21 -12 31 -19 22 -9 22 14 0 19
-19 48 -27 38 -11 -5 7 -2 8 6 3 9 -6 11 -4 5 5 -6 9 -4 11 5 5 8 -5 11 -4 6
3 -3 6 0 14 8 19 14 8 16 12 16 34 0 5 5 7 12 3 7 -4 8 -3 4 5 -4 6 0 14 9 17
13 5 14 9 4 15 -9 5 -18 -1 -27 -20 -17 -37 -73 -100 -71 -81 3 20 -11 50 -23
50 -5 0 -6 -5 -3 -10 3 -5 2 -10 -4 -10 -17 0 -22 18 -6 24 12 4 13 10 3 32
-11 24 -13 25 -25 8 -15 -21 -17 -11 -3 16 11 21 -4 38 -16 19 -5 -8 -3 -9 6
-4 9 5 11 4 6 -3 -11 -19 -42 7 -44 37 -1 26 -1 26 12 -4 10 -25 13 -27 19
-12 4 10 3 16 -2 13 -5 -3 -11 3 -14 14 -3 11 -13 20 -22 20 -10 0 -14 -5 -10
-12 4 -7 -2 -4 -12 7 -30 32 -75 39 -115 19 -17 -9 -27 -11 -24 -5 14 21 -6
11 -26 -14 -11 -14 -23 -23 -28 -20 -11 7 -21 -22 -14 -40 4 -8 10 -13 14 -10
5 3 11 1 15 -5 4 -6 10 -8 15 -5 4 3 10 -2 14 -10 3 -8 0 -17 -6 -21 -6 -4 -8
-3 -5 2 3 6 -3 15 -14 22 -16 10 -19 9 -19 -4 0 -8 5 -12 10 -9 6 3 10 3 10
-2 0 -4 15 -23 32 -42 18 -19 33 -42 35 -50 1 -9 9 -21 17 -27 9 -6 13 -14 10
-17 -3 -3 3 -10 14 -16 11 -6 22 -7 26 -4 6 6 8 1 9 -34 1 -10 7 -22 14 -28 8
-6 9 -15 4 -24 -7 -10 -11 -8 -16 10 -5 13 -7 26 -6 28 2 2 -3 8 -11 12 -10 7
-10 9 2 9 13 0 13 1 0 10 -8 5 -19 10 -25 10 -5 0 -3 -5 5 -10 8 -5 12 -10 7
-10 -4 0 4 -22 17 -49 14 -27 23 -51 21 -53 -3 -3 2 -5 10 -5 18 0 20 13 3 20
-10 4 -10 6 -1 6 7 1 17 -8 23 -19 6 -11 8 -20 4 -20 -3 0 -1 -6 5 -14 8 -9 8
-16 2 -20 -12 -8 -19 4 -16 26 2 11 -2 15 -12 11 -12 -5 -12 -7 -1 -14 7 -5
10 -9 5 -9 -4 0 -1 -13 8 -30 9 -16 13 -30 10 -30 -3 0 -2 -8 4 -17 5 -10 18
-18 28 -18 10 0 18 -4 18 -10 0 -5 4 -16 9 -24 7 -10 6 -12 -4 -6 -10 6 -12 4
-7 -9 4 -10 3 -15 -3 -11 -6 4 -8 17 -6 30 4 19 1 22 -12 18 -9 -4 -11 -8 -5
-10 7 -3 10 -10 7 -17 -3 -7 1 -18 9 -24 14 -12 66 -12 67 1 1 24 -1 28 -11
21 -8 -4 -7 -9 2 -15 10 -6 7 -8 -8 -6 -23 1 -23 1 4 29 14 15 29 25 33 23 4
-2 17 7 30 20 13 13 27 22 31 19 5 -3 9 0 9 5 0 6 7 11 16 11 8 0 13 4 10 9
-3 4 1 16 8 27 8 10 12 23 9 30 -2 6 2 14 10 17 7 3 14 -1 14 -9 0 -7 -5 -10
-10 -7 -6 3 -7 1 -3 -5 3 -6 2 -13 -4 -17 -6 -4 -8 -11 -5 -16 4 -5 1 -9 -6
-9 -7 0 -9 -3 -6 -6 9 -9 38 16 32 26 -3 5 -1 11 5 15 5 3 10 15 10 26 0 10 4
19 10 19 5 0 9 3 8 8 -1 4 3 17 10 30 7 12 10 22 7 22 -3 0 2 11 10 24 12 18
13 26 4 32 -7 4 -9 3 -6 -3 3 -5 0 -10 -8 -10 -13 0 -12 4 2 19 9 10 13 18 9
18 -10 0 26 53 47 69 10 7 16 19 13 26 -3 8 2 19 9 25 8 7 12 16 10 21 -3 4 3
12 12 18 10 5 17 13 15 17 -1 4 5 9 15 10 14 2 13 -2 -7 -20 -27 -25 -38 -50
-18 -44 7 3 13 9 13 14 0 5 10 20 22 33 25 27 21 60 -5 39 -9 -7 -2 5 15 26
18 22 30 43 27 47 -5 9 15 23 23 15 3 -3 0 -12 -7 -21 -10 -12 -10 -15 3 -15
8 0 18 8 21 18 12 33 33 62 40 55 4 -4 4 0 0 10 -3 9 -10 14 -15 11 -5 -3 -6
2 -3 10 7 19 20 21 30 4 5 -7 3 -8 -6 -3 -9 5 -11 4 -6 -4 6 -9 11 -9 21 -1
16 13 8 43 -9 33 -6 -3 3 9 19 28 17 19 31 35 31 37 1 2 4 -4 8 -13 4 -11 2
-14 -6 -9 -7 5 -8 3 -3 -6 6 -9 4 -11 -5 -5 -9 6 -11 4 -5 -5 6 -9 4 -11 -5
-5 -9 6 -11 4 -5 -5 6 -9 4 -11 -5 -5 -9 6 -11 4 -5 -4 12 -20 54 25 48 52 -4
18 -3 19 6 7 9 -13 11 -13 11 3 0 9 -5 17 -12 17 -7 0 -5 5 5 13 9 6 30 30 47
52 18 22 37 40 43 40 7 1 11 6 9 13 -1 7 3 11 10 10 7 -2 12 2 13 9 0 7 6 18
13 24 10 11 14 10 25 0 10 -10 8 -11 -8 -5 -11 4 -17 3 -12 -1 9 -10 -43 -66
-55 -59 -7 5 -12 -10 -9 -29 1 -5 -4 -5 -10 -1 -8 5 -9 3 -4 -6 6 -9 4 -11 -5
-5 -9 6 -11 4 -5 -5 6 -9 4 -11 -5 -5 -9 5 -11 4 -6 -3 4 -7 2 -12 -4 -12 -6
0 -8 -5 -4 -12 5 -7 3 -8 -6 -3 -9 6 -11 4 -5 -5 6 -9 4 -11 -5 -5 -9 6 -11 4
-5 -5 6 -10 16 -3 39 26 17 21 51 59 77 84 37 36 45 49 38 62 -7 13 -5 20 10
28 25 13 31 13 31 -1 0 -5 -4 -8 -9 -5 -5 3 -11 -1 -15 -9 -7 -20 1 -19 32 5
19 16 27 18 33 8 4 -7 5 -16 2 -22 -4 -5 1 -7 12 -2 15 5 16 4 6 -8 -9 -11 -9
-16 0 -22 8 -5 9 -3 4 6 -5 9 -4 11 3 6 7 -4 12 -14 12 -22 0 -8 5 -14 10 -14
6 0 10 -9 10 -19 0 -10 6 -21 14 -24 9 -4 12 -15 8 -33 -3 -17 -1 -25 6 -21 5
4 13 0 16 -9 3 -8 2 -12 -4 -9 -6 3 -7 -1 -4 -9 3 -9 11 -13 18 -9 6 4 4 -2
-4 -12 -9 -11 -10 -16 -2 -11 8 5 12 -1 12 -18 0 -14 5 -26 10 -26 6 0 10 -4
10 -10 0 -5 -8 -7 -17 -4 -15 5 -15 4 -4 -4 15 -11 20 -27 23 -79 0 -18 4 -30
8 -28 3 2 6 -7 6 -20 0 -13 -3 -22 -7 -19 -4 2 -11 -1 -15 -7 -4 -8 -3 -9 4
-5 6 4 16 -4 23 -16 11 -21 11 -22 -5 -9 -14 12 -16 12 -10 -4 5 -13 4 -16 -4
-11 -13 8 -6 -20 10 -41 6 -7 1 -17 -14 -28 -13 -10 -16 -15 -6 -12 13 5 16 0
15 -28 -1 -18 -4 -33 -7 -33 -18 1 -21 -4 -9 -19 8 -10 9 -14 2 -10 -8 5 -13
-4 -15 -30 -2 -25 -8 -37 -16 -35 -10 2 -10 -2 -1 -19 9 -17 8 -20 -1 -14 -10
6 -12 1 -8 -18 4 -18 1 -24 -9 -20 -7 3 -10 10 -6 16 4 6 1 7 -6 2 -8 -5 -9
-11 -3 -17 6 -6 3 -23 -8 -46 -10 -20 -16 -41 -13 -46 4 -5 2 -7 -3 -3 -5 3
-18 -2 -29 -10 -15 -12 -16 -14 -3 -10 12 4 15 2 11 -8 -3 -8 -9 -12 -14 -9
-5 3 -9 -1 -9 -8 0 -7 -10 -24 -21 -38 -11 -14 -17 -18 -13 -10 7 13 6 13 -10
1 -13 -11 -14 -16 -4 -23 9 -7 6 -8 -10 -5 -20 5 -21 3 -10 -11 11 -13 11 -15
-5 -9 -13 5 -17 2 -15 -11 2 -12 -3 -16 -16 -14 -14 3 -17 -1 -12 -13 3 -9 2
-13 -3 -10 -5 3 -12 1 -16 -5 -3 -5 -1 -10 6 -10 7 0 10 -3 7 -6 -4 -3 -16 -1
-27 5 -18 10 -20 9 -14 -6 5 -12 2 -15 -10 -10 -11 4 -15 1 -12 -12 2 -12 -2
-18 -13 -17 -9 0 -16 -4 -15 -10 1 -6 -9 -10 -23 -8 -13 1 -22 -1 -20 -4 2 -4
-2 -13 -10 -20 -11 -10 -14 -10 -14 0 -1 8 -7 5 -16 -7 -8 -11 -22 -19 -31
-17 -8 2 -12 -1 -9 -7 4 -5 1 -13 -5 -17 -7 -4 -9 -3 -6 3 4 6 0 13 -8 17 -8
3 -17 0 -21 -6 -5 -7 -2 -8 6 -3 9 6 11 4 6 -4 -5 -7 -14 -10 -22 -7 -8 3 -14
2 -14 -2 0 -4 -14 -7 -30 -8 -17 -1 -40 -10 -52 -20 -13 -10 -17 -12 -11 -4
10 13 8 16 -6 16 -12 0 -17 -6 -14 -14 6 -15 -18 -13 -29 3 -5 6 -8 5 -8 -3 0
-10 -5 -10 -22 -1 -20 11 -21 10 -11 -2 10 -12 7 -14 -15 -13 -17 1 -26 7 -24
15 1 8 -7 3 -19 -11 -11 -14 -18 -19 -14 -12 6 11 -4 13 -48 10 -31 -2 -55 0
-54 5 1 5 -4 12 -12 15 -8 3 -11 0 -7 -7 4 -6 3 -11 -2 -11 -6 0 -13 7 -16 16
-5 14 -9 14 -23 3 -12 -10 -14 -10 -9 -1 4 6 4 12 -1 13 -4 0 -16 2 -26 4 -9
2 -15 -1 -11 -6 10 -16 -9 -9 -22 8 -8 11 -13 13 -14 6 0 -7 -7 -10 -16 -6 -8
3 -13 12 -10 19 3 8 1 14 -3 14 -5 0 -11 -5 -13 -11 -5 -15 -78 21 -78 39 0
12 -3 12 -17 1 -14 -12 -16 -12 -8 0 6 11 4 13 -9 8 -12 -5 -16 -2 -14 11 2
13 -4 17 -25 16 -23 -1 -25 1 -15 14 11 13 10 15 -10 9 -18 -4 -22 -2 -18 9 3
9 1 12 -4 9 -6 -3 -13 1 -16 9 -3 9 -10 16 -16 16 -5 0 -6 -5 -2 -12 4 -6 3
-8 -4 -4 -6 3 -9 15 -7 25 3 14 -1 18 -16 14 -14 -4 -19 0 -19 16 0 11 -5 21
-11 21 -5 0 -7 -5 -3 -12 4 -7 3 -8 -4 -4 -6 4 -9 13 -6 20 3 8 0 17 -7 22 -8
5 -10 3 -4 -6 6 -9 4 -11 -4 -6 -7 5 -10 15 -7 23 4 10 1 13 -12 9 -12 -4 -19
-1 -19 8 0 9 5 12 10 9 6 -3 7 -1 3 5 -4 7 -14 12 -23 12 -13 0 -13 3 -3 15 7
9 10 18 6 22 -3 3 -6 0 -6 -7 0 -9 -9 -5 -25 10 -17 16 -22 27 -15 35 7 9 5
17 -7 26 -17 13 -17 13 -4 -6 14 -19 14 -19 -5 -2 -15 14 -16 19 -5 26 11 7 9
10 -9 16 -17 6 -19 9 -9 16 12 7 12 10 0 21 -11 11 -13 11 -6 -1 5 -9 4 -12
-3 -8 -5 4 -8 17 -4 29 3 14 2 19 -6 14 -7 -4 -12 -2 -12 3 0 6 5 11 10 11 6
0 10 5 10 11 0 5 -4 7 -10 4 -6 -3 -10 4 -10 17 0 13 -5 29 -12 36 -9 9 -9 12
1 12 9 0 10 4 4 13 -10 12 -22 65 -27 123 -1 17 -7 37 -11 45 -8 12 -6 12 8 0
15 -12 17 -12 11 4 -5 13 -4 16 4 11 17 -10 15 0 -4 18 -8 9 -11 16 -5 16 6 0
11 7 11 16 0 9 -5 12 -12 8 -9 -6 -9 -3 1 9 7 9 10 24 7 33 -5 13 -4 14 7 6
11 -9 13 -7 12 8 -1 11 -5 23 -10 27 -4 5 -5 2 0 -6 5 -10 4 -12 -4 -7 -6 4
-9 12 -5 17 3 5 10 6 16 3 6 -4 9 5 7 22 -4 40 10 76 24 67 7 -4 5 2 -3 12 -9
11 -10 16 -2 11 6 -4 13 -2 13 3 1 6 3 16 4 21 1 6 3 15 4 21 0 5 7 7 14 3 6
-4 9 -4 5 1 -4 4 -2 15 5 23 9 13 9 14 0 8 -22 -12 -14 2 15 30 15 15 21 23
15 20 -7 -4 -13 -2 -13 3 0 6 7 11 16 11 13 0 14 3 5 14 -9 11 -8 14 6 12 10
0 18 5 18 13 0 8 6 16 14 19 9 3 11 0 6 -8 -6 -9 -4 -11 4 -5 9 5 9 11 3 17
-6 6 -8 17 -5 25 5 12 7 12 14 1 7 -10 9 -9 9 5 0 9 5 17 11 17 5 0 7 6 3 13
-5 8 -2 7 9 -2 15 -12 17 -12 11 3 -3 9 -1 16 6 16 6 0 8 5 5 10 -3 6 1 10 9
10 9 0 16 5 16 11 0 6 7 9 15 5 8 -3 14 -2 14 2 -4 22 3 31 18 25 12 -5 14 -3
8 7 -6 10 -4 12 9 7 11 -5 15 -3 10 5 -5 8 -2 9 11 4 16 -6 16 -4 4 11 -11 14
-12 15 0 9 7 -5 16 -5 20 0 11 16 55 49 47 37 -4 -7 -2 -13 3 -13 6 0 11 8 12
18 0 10 3 12 6 5 7 -18 23 -16 23 3 0 13 3 14 15 4 12 -10 13 -8 10 10 -4 21
-3 22 14 6 18 -16 20 -16 35 5 18 27 48 35 39 11 -4 -10 2 -7 16 7 12 12 26
19 31 16 5 -3 11 -1 15 5 4 7 12 7 26 0 12 -7 19 -7 19 -1 0 6 7 7 17 4 12 -5
14 -3 8 8 -8 12 -6 12 8 0 14 -11 17 -11 18 0 0 10 2 11 6 2 2 -7 9 -13 14
-13 6 0 7 6 3 13 -5 8 -2 8 9 -2 16 -12 22 -8 18 12 -1 5 3 6 9 2 5 -3 10 -14
11 -23z m-279 -44 c-7 -7 -12 -8 -12 -2 0 14 12 26 19 19 2 -3 -1 -11 -7 -17z
m1128 -67 c-24 -35 -27 -37 -27 -16 0 8 4 12 9 9 4 -3 8 -1 8 5 0 5 -3 11 -7
14 -5 2 -2 2 5 1 7 -2 15 3 19 12 3 8 8 13 10 10 3 -3 -5 -19 -17 -35z m-40
-19 c0 -4 -17 -24 -37 -43 -21 -18 -29 -24 -19 -11 13 14 15 22 6 22 -7 0 -2
9 11 20 26 21 39 25 39 12z m-290 -82 c0 -5 -6 -10 -12 -10 -9 0 -8 -4 2 -10
10 -7 11 -10 3 -11 -34 -4 -38 -6 -35 -18 1 -7 -2 -10 -8 -6 -6 4 -2 17 12 35
24 30 38 37 38 20z m-357 -364 c4 -10 1 -13 -8 -10 -10 4 -13 0 -10 -15 3 -14
0 -18 -12 -14 -12 5 -12 7 -1 14 7 5 9 9 4 9 -5 0 -3 7 4 15 15 18 17 19 23 1z
m109 -103 c-6 -3 -9 -10 -6 -15 4 -7 2 -8 -5 -4 -9 6 -9 11 0 22 6 8 15 12 18
8 3 -4 0 -9 -7 -11z m-459 -196 c3 -8 -1 -14 -8 -14 -7 0 -11 6 -8 14 3 7 6
13 8 13 2 0 5 -6 8 -13z m-226 -3 c-3 -3 6 -17 20 -30 14 -13 22 -24 18 -24
-4 0 -1 -8 8 -18 10 -10 14 -22 10 -25 -3 -4 -2 -7 4 -7 6 0 13 -6 16 -13 3
-8 -1 -14 -9 -14 -7 0 -11 4 -8 8 2 4 -3 12 -11 17 -9 5 -17 15 -19 23 -6 38
-19 57 -39 63 -18 5 -20 8 -7 16 17 11 27 13 17 4z m278 -133 c3 -5 2 -12 -3
-15 -5 -3 -9 1 -9 9 0 17 3 19 12 6z m176 -54 c-6 -8 -7 -18 -3 -22 4 -5 2 -5
-5 -1 -6 3 -14 2 -18 -4 -3 -5 -1 -10 4 -10 7 0 7 -7 -1 -20 -15 -24 -25 -26
-25 -5 0 8 5 11 10 8 6 -4 8 0 4 9 -3 9 3 25 14 37 22 23 38 29 20 8z m-288
-164 c-5 -12 -3 -14 8 -8 8 4 11 5 7 0 -4 -4 -2 -15 5 -23 9 -13 9 -14 0 -8
-8 4 -13 2 -13 -5 0 -7 -2 -10 -5 -7 -9 8 -15 50 -9 59 9 15 14 10 7 -8z m287
-449 c0 -8 -19 -13 -24 -6 -3 5 1 9 9 9 8 0 15 -2 15 -3z"/>
<path d="M1346 1438 c-20 -21 -32 -38 -26 -38 6 0 13 6 16 14 3 8 13 12 22 9
14 -4 14 -3 3 5 -11 8 -10 11 7 16 26 9 47 33 28 33 -7 0 -30 -18 -50 -39z"/>
<path d="M1285 1381 c-10 -17 9 -20 30 -5 18 14 18 14 -2 14 -12 0 -24 -4 -28
-9z"/>
<path d="M1208 1291 c-16 -18 -15 -20 2 -18 10 1 17 4 14 8 -2 4 4 12 13 18
14 8 15 10 3 11 -9 0 -23 -9 -32 -19z"/>
<path d="M236 1233 c-6 -14 -5 -15 5 -6 7 7 10 15 7 18 -3 3 -9 -2 -12 -12z"/>
<path d="M647 1083 c-4 -3 -17 -7 -29 -8 -39 -2 -68 -16 -68 -31 0 -8 -4 -13
-10 -9 -11 7 -43 -23 -53 -48 -3 -9 -2 -17 3 -17 6 0 10 -5 10 -11 0 -5 -6 -7
-12 -3 -9 5 -9 3 1 -9 18 -22 34 -11 21 14 -12 21 4 64 20 54 5 -3 16 5 25 17
8 13 28 24 43 26 45 4 76 4 97 -1 11 -3 24 -6 28 -6 5 -1 5 -6 1 -13 -4 -7 -3
-8 4 -4 17 10 15 14 -18 31 -16 9 -30 13 -30 9 0 -4 -6 -1 -13 5 -8 6 -17 8
-20 4z"/>
<path d="M1222 1030 c-6 -10 -8 -21 -3 -24 13 -8 31 18 23 31 -6 9 -11 6 -20
-7z"/>
<path d="M1139 908 c0 -2 -2 -12 -3 -23 -2 -11 -16 -34 -33 -52 -26 -28 -40
-64 -24 -63 12 1 42 51 36 60 -3 6 -2 10 4 10 16 0 43 58 31 65 -6 3 -10 5
-11 3z m-43 -106 c-17 -16 -18 -16 -5 5 7 12 15 20 18 17 3 -2 -3 -12 -13 -22z"/>
<path d="M876 808 c3 -5 10 -6 15 -3 13 9 11 12 -6 12 -8 0 -12 -4 -9 -9z"/>
<path d="M300 596 c0 -2 8 -10 18 -17 15 -13 16 -12 3 4 -13 16 -21 21 -21 13z"/>
<path d="M950 530 c-11 -11 -20 -15 -20 -8 0 6 -13 -1 -29 -16 -16 -15 -32
-28 -35 -27 -3 1 -5 -2 -3 -6 3 -10 20 -5 28 9 3 5 10 10 15 10 5 0 8 5 6 10
-2 6 3 8 10 5 8 -2 27 6 43 19 17 13 24 24 18 24 -7 0 -22 -9 -33 -20z"/>
<path d="M660 276 c0 -3 9 -10 20 -16 11 -6 20 -8 20 -6 0 3 -9 10 -20 16 -11
6 -20 8 -20 6z"/>
<path d="M1789 1643 c-13 -16 -12 -17 4 -4 16 13 21 21 13 21 -2 0 -10 -8 -17
-17z"/>
<path d="M1807 1784 c3 -10 9 -11 17 -5 6 5 14 9 18 8 3 -1 9 0 11 3 3 3 -7 6
-23 6 -21 1 -27 -2 -23 -12z"/>
<path d="M1746 1761 c-4 -5 -2 -12 3 -15 5 -4 12 -2 15 3 4 5 2 12 -3 15 -5 4
-12 2 -15 -3z"/>
<path d="M1715 1580 c-3 -5 1 -10 10 -10 9 0 13 5 10 10 -3 6 -8 10 -10 10 -2
0 -7 -4 -10 -10z"/>
<path d="M880 111 c0 -6 4 -13 10 -16 6 -3 7 1 4 9 -7 18 -14 21 -14 7z"/>
</g>
</svg>
